# xmcd
#
# Track frame offsets: 
#        150
#        9433
#        19993
#        32436
#        39281
#        44946
#        55445
#        65481
#        76968
#        82617
#        91310
#        98489
#        109184
#        120603
#
# Disc length: 1751 seconds
#
# Revision: 0
# Processed by: cddbd v1.5.2PL0 Copyright (c) Steve Scherf et al.
# Submitted via: ExactAudioCopyFreeDBPlugin 1.0
#
DISCID=a406d50e
DTITLE=Buck Owens - Four Classic Albums CD-3
DYEAR=1900
DGENRE=Country
TTITLE0=Country Girl (Leavin' Dirty Tracks)
TTITLE1=Down On The Corner Of Love
TTITLE2=The House Down The Block
TTITLE3=You're For Me
TTITLE4=Blue Love
TTITLE5=Right After The Dance
TTITLE6=It Don't Show On Me
TTITLE7=Please Don't Take Her From Me
TTITLE8=Three Dimension Love
TTITLE9=Why Don't My Mommy Stay With My Daddy And Me
TTITLE10=I'm Gonna Blow
TTITLE11=High As The Mountains
TTITLE12=Loose Talk (With Rose Maddox)
TTITLE13=Mental Cruelty (With Rose Maddox)
EXTD=
EXTT0=
EXTT1=
EXTT2=
EXTT3=
EXTT4=
EXTT5=
EXTT6=
EXTT7=
EXTT8=
EXTT9=
EXTT10=
EXTT11=
EXTT12=
EXTT13=
PLAYORDER=
